grf
version=1
nRows=12
nColumns=28
inDegrees=no
endheader
time	ground_force_1_vx	ground_force_1_vy	ground_force_1_vz	ground_force_1_px	ground_force_1_py	ground_force_1_pz	ground_moment_1_mx	ground_moment_1_my	ground_moment_1_mz	ground_force_2_vx	ground_force_2_vy	ground_force_2_vz	ground_force_2_px	ground_force_2_py	ground_force_2_pz	ground_moment_2_mx	ground_moment_2_my	ground_moment_2_mz	ground_force_3_vx	ground_force_3_vy	ground_force_3_vz	ground_force_3_px	ground_force_3_py	ground_force_3_pz	ground_moment_3_mx	ground_moment_3_my	ground_moment_3_mz
      0.62000000	      0.39753764	      0.05570541	      1.45869735	    418.09902914	  -1475.76578448	      2.36828698	      0.02663316	      0.09630584	     52.77041402	    -10.59358841	   -248.57356273	  -1677.51230857	    406.29562409	  -1846.24038541	      0.06363285	      0.25210478	      3.26045553	  -3906.91720556	      1.78559254	     -0.74262919	      4.32646597	    476.95148880	   -271.67716922	      0.36319815	     -0.13101804	      0.96244896	    468.65503741
      0.63000000	      0.27586982	      0.11242398	      0.83888132	    384.58734365	  -1541.18653550	      2.50459295	      0.02004390	      0.07247899	     39.71458554	    -30.43900312	   -268.95862575	  -1452.97526661	    408.61845729	  -1849.70043801	      0.06089521	      0.18741371	      2.42380992	  -2904.38699818	      1.49330477	     -0.50936161	      4.19916030	    479.18222464	   -323.23947245	      0.46971221	     -0.12108131	      0.88945443	    433.11106881
      0.64000000	      0.44268316	     -0.09960758	      1.28069287	    370.44952889	  -1459.25864817	      2.36221015	      0.01881729	      0.06804356	     37.28420779	    -47.59661833	   -270.96264671	  -1193.00338648	    410.72333453	  -1853.49376727	      0.05786537	      0.09333426	      1.20708615	  -1446.41924647	      1.64665120	     -0.60131340	      3.95358863	    467.09717921	   -321.52093602	      0.46280444	     -0.12886267	      0.94661578	    460.94522476
      0.65000000	      0.24299227	     -0.00415618	      1.02844917	    342.58530476	  -1406.49510864	      2.27997989	      0.02429896	      0.08786534	     48.14547635	    -53.18326990	   -253.10986729	   -915.56266466	    412.30949188	  -1856.94757588	      0.05508540	     -0.02492764	     -0.32238762	    386.30851771	      1.66012815	     -0.65620557	      4.16125988	    475.63765709	   -288.18030835	      0.39672237	     -0.15274104	      1.12202452	    546.35878547
      0.66000000	      0.22389948	      0.17895449	      1.34538134	    340.57159658	  -1333.77158432	      2.14827600	      0.03324182	      0.12020286	     65.86469658	    -52.39518028	   -216.69979552	   -627.83213027	    413.25038777	  -1860.95293804	      0.05180350	     -0.11451478	     -1.48101252	   1774.65793758	      1.71428271	     -0.45455050	      4.41799507	    457.47406964	   -316.27642710	      0.44934385	     -0.10357059	      0.76082200	    370.47477527
      0.67000000	      0.37826400	      0.18088662	      1.17357570	    312.17870432	  -1284.67142039	      2.07299821	      0.05428311	      0.19628844	    107.55549637	    -40.88459779	   -151.27560689	   -386.07897454	    413.74973557	  -1869.99544768	      0.04428944	     -0.16528224	     -2.13758495	   2561.41123443	      1.55292849	     -0.59955137	      4.07957593	    443.61016111	   -276.64676789	      0.36408296	     -0.11439767	      0.84035692	    409.20352206
      0.68000000	      0.33069279	      0.16680914	      1.15861626	    214.49364116	  -1376.97368552	      2.29075108	      0.03062884	      0.11075428	     60.68738313	    -26.86273358	    -88.08104497	   -211.92576710	    412.99061045	  -1885.84665974	      0.03101208	     -0.15398817	     -1.99151945	   2386.38482179	      1.66669405	     -0.39600562	      4.29002706	    466.59070180	   -242.49352193	      0.30036895	     -0.12624705	      0.92740161	    451.58907685
      0.69000000	      0.32860293	      0.49826941	      1.99021418	    320.29770886	  -1257.74691234	      2.01976342	      0.09262529	      0.33493426	    183.52593865	    -11.32711581	    -36.65046724	   -103.49778184	    411.61436301	  -1907.87006963	      0.01254399	     -0.08899254	     -1.15093504	   1379.13486975	      1.49843521	     -0.41904488	      4.22771830	    459.35249899	   -243.66041132	      0.30074180	     -0.12028038	      0.88357086	    430.24612202
      0.70000000	      0.48535440	      0.24650900	      1.90149753	    300.99687674	  -1225.51822753	      1.97068728	      0.05222828	      0.18885813	    103.48408611	     -3.23915691	    -21.69883737	    -35.54763022	    415.45976389	  -1932.35531604	     -0.00764165	     -0.05536331	     -0.71601021	    857.97600587	      1.42331751	     -0.61860568	      3.69028461	    467.36041442	   -298.14194798	      0.41486600	     -0.08593399	      0.63126479	    307.38816857
      0.71000000	      0.56265521	      0.53609620	      1.51034213	    280.68993721	  -1222.24666197	      1.97496557	      0.10354941	      0.37443602	    205.17077634	      0.59135000	     -2.41450826	     -5.74967768	    494.41831422	  -2129.85058379	     -0.16736316	     -0.02822871	     -0.36508017	    437.46586433	      1.71482219	     -0.53909280	      4.36004118	    457.88514526	   -320.49914584	      0.45813072	     -0.09851232	      0.72366432	    352.38120763
      0.72000000	      0.40060988	      0.43027938	      2.02922522	    311.94928982	  -1254.76575126	      2.01853625	      0.06894663	      0.24931190	    136.60949737	      0.98801625	      4.19850315	      0.75856409	   -419.26260165	   -610.84579958	      1.04134027	     -0.32177530	     -4.16149999	   4986.61482289	      1.78364167	     -0.79183931	      4.56916464	    448.49528027	   -292.94821671	      0.39892597	     -0.11685689	      0.85842214	    418.00020408
      0.73000000	      0.58115388	      0.39387011	      1.96463509	    315.25144015	  -1192.50924781	      1.90325173	      0.07660409	      0.27700139	    151.78184461	      0.82610987	      3.43118337	      1.16056052	   -152.81888650	  -1139.30509123	      0.61751601	     -0.18235315	     -2.35836198	   2825.96247176	      1.74748298	     -0.58187125	      4.44717415	    445.83695278	   -297.35396399	      0.40723062	     -0.10930987	      0.80298235	    391.00434519
